<svg style="object-fit:cover" id="my-svg" version="1" baseProfile="full" width="100%" height="100%" viewBox="0 0 1536 758" xmlns="http://www.w3.org/2000/svg"><rect width="1536" height="758" fill="#000" data-darkreader-inline-fill="" style="--darkreader-inline-fill:#000000;"/><defs><linearGradient id="linear-gradient" x1="0" x2="1" y1="0" y2="1"><stop offset="0%" stop-color="#009dff90" data-darkreader-inline-stopcolor="" style="--darkreader-inline-stopcolor:rgba(0, 126, 204, 0.56);"/><stop offset="100%" stop-color="#0011ff90" data-darkreader-inline-stopcolor="" style="--darkreader-inline-stopcolor:rgba(0, 14, 204, 0.56);"/></linearGradient></defs><path transform="scale(1, 1)" style="transform-origin: center center; --darkreader-inline-stroke:none;" d="M 0,758 V 0,454 C 136.82142857142858,479.75 273.64285714285717,505.5 386,489 C 498.35714285714283,472.5 586.2499999999999,413.74999999999994 698,425 C 809.7500000000001,436.25000000000006 945.3571428571429,517.5 1089,534 C 1232.642857142857,550.5 1384.3214285714284,502.25 1536,454 C 1536,454 1536,758 1536,758 Z" stroke="none" stroke-width="0" fill="url(#linear-gradient)" class="transition-all duration-300 ease-in-out delay-150" data-darkreader-inline-stroke=""/><defs><linearGradient id="linear-gradient" x1="0" x2="1" y1="0" y2="1"><stop offset="0%" stop-color="#009dffff" data-darkreader-inline-stopcolor="" style="--darkreader-inline-stopcolor:#007ecc;"/><stop offset="100%" stop-color="#0011ffff" data-darkreader-inline-stopcolor="" style="--darkreader-inline-stopcolor:#000ecc;"/></linearGradient></defs><path transform="scale(1, 1)" d="M 0,758 V 0,682 C 153.89285714285717,625.3928571428571 307.78571428571433,568.7857142857142 412,539 C 516.2142857142857,509.2142857142857 570.75,506.2499999999999 708,554 C 845.25,601.7500000000001 1065.2142857142856,700.2142857142858 1217,730 C 1368.7857142857144,759.7857142857142 1452.3928571428573,720.8928571428571 1536,682 C 1536,682 1536,758 1536,758 Z" stroke="none" stroke-width="0" fill="url(#linear-gradient)" class="transition-all duration-300 ease-in-out delay-150" style="transform-origin: center center; --darkreader-inline-stroke:none;" data-darkreader-inline-stroke=""/></svg>