<svg style="object-fit:cover" id="my-svg" version="1" baseProfile="full" width="100%" height="100%" viewBox="0 0 1536 758" xmlns="http://www.w3.org/2000/svg"><rect width="1536" height="758" fill="#000"></rect><defs><linearGradient id="linear-gradient" x1="0" x2="1" y1="0" y2="1"><stop offset="0%" stop-color="#1236ca90"></stop><stop offset="100%" stop-color="#002fff90"></stop></linearGradient></defs><path transform="scale(-1, 1)" style="transform-origin:center" d="M 0,758 V 0,379 C 151.75,312.8928571428571 303.5,246.78571428571428 427,267 C 550.5,287.2142857142857 645.7499999999999,393.74999999999994 746,439 C 846.2500000000001,484.25000000000006 951.5,468.2142857142857 1084,448 C 1216.5,427.7857142857143 1376.25,403.3928571428571 1536,379 C 1536,379 1536,758 1536,758 Z" stroke="none" stroke-width="0" fill="url(#linear-gradient)" class="transition-all duration-300 ease-in-out delay-150"></path><defs><linearGradient id="linear-gradient" x1="0" x2="1" y1="0" y2="1"><stop offset="0%" stop-color="#1236caff"></stop><stop offset="100%" stop-color="#002fffff"></stop></linearGradient></defs><path transform="scale(-1, 1)" d="M 0,758 V 0,568 C 125.25,561.75 250.5,555.5 388,532 C 525.5,508.5 675.25,467.75 818,492 C 960.75,516.25 1096.5,605.5000000000001 1215,629 C 1333.5,652.4999999999999 1434.75,610.25 1536,568 C 1536,568 1536,758 1536,758 Z" stroke="none" stroke-width="0" fill="url(#linear-gradient)" class="transition-all duration-300 ease-in-out delay-150" style="transform-origin: center center;"></path></svg>
